<svg xmlns="http://www.w3.org/2000/svg" width="512" height="512" viewBox="0 0 512 512" role="img" aria-labelledby="title description">
  <title id="title">SecretBroker icon</title>
  <desc id="description">A shield and lock between two terminal chevrons.</desc>
  <defs>
    <linearGradient id="background" x1="0" y1="0" x2="1" y2="1">
      <stop offset="0" stop-color="#07111f"/>
      <stop offset="1" stop-color="#18112d"/>
    </linearGradient>
    <linearGradient id="accent" x1="0" y1="0" x2="1" y2="1">
      <stop offset="0" stop-color="#38bdf8"/>
      <stop offset="0.55" stop-color="#818cf8"/>
      <stop offset="1" stop-color="#c084fc"/>
    </linearGradient>
  </defs>
  <rect width="512" height="512" rx="112" fill="url(#background)"/>
  <rect x="18" y="18" width="476" height="476" rx="96" fill="none" stroke="#334155" stroke-width="4"/>
  <path d="M256 72 382 118v116c0 92-53 152-126 186-73-34-126-94-126-186V118z" fill="url(#accent)" opacity=".2" stroke="url(#accent)" stroke-width="10"/>
  <rect x="206" y="200" width="100" height="98" rx="21" fill="#0b1427" stroke="#eef2ff" stroke-width="10"/>
  <path d="M226 200v-24c0-40 60-40 60 0v24" fill="none" stroke="#eef2ff" stroke-width="10" stroke-linecap="round"/>
  <circle cx="256" cy="246" r="11" fill="#38bdf8"/>
  <path d="m83 220 40 34-40 34M429 220l-40 34 40 34" fill="none" stroke="#7dd3fc" stroke-width="13" stroke-linecap="round" stroke-linejoin="round"/>
  <circle cx="256" cy="374" r="9" fill="#c084fc"/>
  <circle cx="220" cy="374" r="9" fill="#818cf8"/>
  <circle cx="292" cy="374" r="9" fill="#38bdf8"/>
</svg>
